PathFileType	3	(X/Y/Z)	squats_1__fused_aligned.trc
DataRate	CameraRate	NumFrames	NumMarkers	Units	OrigDataRate	OrigDataStartFrame	OrigNumFrames
100.0	100.0	9	19	mm	100.0	134	1650
Frame#	Time	pelvis			neck			head			hip_left			hip_right			knee_left			knee_right			ankle_left			ankle_right			heel_left			heel_right			toe_left			toe_right			shoulder_left			shoulder_right			elbow_left			elbow_right			wrist_left			wrist_right			
		X1	Y1	Z1	X2	Y2	Z2	X3	Y3	Z3	X4	Y4	Z4	X5	Y5	Z5	X6	Y6	Z6	X7	Y7	Z7	X8	Y8	Z8	X9	Y9	Z9	X10	Y10	Z10	X11	Y11	Z11	X12	Y12	Z12	X13	Y13	Z13	X14	Y14	Z14	X15	Y15	Z15	X16	Y16	Z16	X17	Y17	Z17	X18	Y18	Z18	X19	Y19	Z19	
134	1.33000	86.916294	954.432972	-17.126005	89.112816	1532.348840	-40.216500	78.058102	1667.325384	-157.767886	11.944013	954.051331	-11.893551	161.888821	954.814608	-22.358408	-46.365117	528.332826	18.988643	202.466230	526.155683	-11.410810	-82.328666	139.229182	129.187273	233.616518	134.240658	88.185647	-78.990139	94.887104	167.685433	233.957699	90.239031	128.335409	-111.612232	70.820963	-52.596581	245.483998	58.154859	-93.744480	-89.992618	1481.828372	-0.439789	272.085789	1473.719514	-16.084265	-195.652768	1206.469787	-60.956243	351.810050	1195.810565	-79.400852	-221.076285	1222.134636	-312.154440	312.139388	1290.164337	-291.377220
135	1.34000	87.288148	954.107621	-17.134206	89.462607	1531.976651	-40.624184	78.280759	1667.080862	-158.167473	12.267601	953.724380	-11.931367	162.308933	954.490857	-22.336986	-45.960542	528.096114	18.823400	202.909207	525.956242	-11.826837	-82.052551	139.007412	128.815363	234.127280	134.069657	87.623620	-78.776612	94.654695	167.328556	234.501416	90.056969	127.779803	-111.070039	70.595205	-53.022174	245.899325	58.004979	-94.336189	-90.046466	1481.413129	-1.431843	272.846120	1473.229936	-17.288383	-193.533721	1205.640997	-62.446712	350.499251	1194.925210	-81.095402	-212.764654	1223.271899	-313.971776	304.736589	1287.615105	-292.609270
136	1.35000	87.660003	953.782270	-17.142407	89.812398	1531.604462	-41.031869	78.503416	1666.836341	-158.567061	12.591189	953.397429	-11.969183	162.729045	954.167106	-22.315564	-45.555967	527.859403	18.658157	203.352184	525.756801	-12.242864	-81.776437	138.785642	128.443452	234.638043	133.898657	87.061594	-78.563085	94.422287	166.971678	235.045132	89.874907	127.224196	-110.527846	70.369447	-53.447767	246.314651	57.855098	-94.927898	-90.100314	1480.997886	-2.423897	273.606452	1472.740359	-18.492500	-191.414675	1204.812206	-63.937181	349.188453	1194.039854	-82.789952	-204.453024	1224.409162	-315.789113	297.333791	1285.065874	-293.841319
137	1.36000	88.031858	953.456919	-17.150608	90.162189	1531.232273	-41.439554	78.726073	1666.591819	-158.966648	12.914778	953.070478	-12.006999	163.149157	953.843355	-22.294142	-45.151393	527.622691	18.492914	203.795161	525.557360	-12.658892	-81.500322	138.563872	128.071541	235.148805	133.727656	86.499568	-78.349558	94.189879	166.614801	235.588848	89.692846	126.668589	-109.985654	70.143689	-53.873360	246.729977	57.705218	-95.519607	-90.154162	1480.582644	-3.415951	274.366783	1472.250781	-19.696618	-189.295628	1203.983416	-65.427650	347.877655	1193.154498	-84.484503	-196.141393	1225.546425	-317.606449	289.930993	1282.516643	-295.073368
138	1.37000	88.403712	953.131568	-17.158810	90.511980	1530.860085	-41.847238	78.948730	1666.347298	-159.366235	13.238366	952.743527	-12.044815	163.569269	953.519604	-22.272721	-44.746818	527.385980	18.327671	204.238138	525.357919	-13.074919	-81.224207	138.342102	127.699631	235.659568	133.556655	85.937541	-78.136030	93.957470	166.257923	236.132564	89.510784	126.112983	-109.443461	69.917931	-54.298954	247.145304	57.555338	-96.111316	-90.208010	1480.167401	-4.408006	275.127114	1471.761204	-20.900735	-187.176581	1203.154626	-66.918119	346.566857	1192.269143	-86.179053	-187.829762	1226.683688	-319.423786	282.528195	1279.967411	-296.305417
139	1.38000	88.775567	952.806217	-17.167011	90.861771	1530.487896	-42.254923	79.171386	1666.102776	-159.765823	13.561954	952.416575	-12.082631	163.989381	953.195853	-22.251299	-44.342243	527.149268	18.162428	204.681115	525.158478	-13.490947	-80.948092	138.120332	127.327720	236.170330	133.385654	85.375515	-77.922503	93.725062	165.901046	236.676281	89.328722	125.557376	-108.901268	69.692173	-54.724547	247.560630	57.405457	-96.703025	-90.261858	1479.752158	-5.400060	275.887445	1471.271627	-22.104853	-185.057534	1202.325835	-68.408588	345.256058	1191.383787	-87.873603	-179.518131	1227.820951	-321.241122	275.125397	1277.418180	-297.537467
140	1.39000	89.147421	952.480866	-17.175212	91.211563	1530.115707	-42.662607	79.394043	1665.858254	-160.165410	13.885542	952.089624	-12.120448	164.409494	952.872102	-22.229877	-43.937668	526.912557	17.997184	205.124092	524.959036	-13.906974	-80.671978	137.898562	126.955809	236.681093	133.214653	84.813489	-77.708976	93.492654	165.544168	237.219997	89.146661	125.001770	-108.359076	69.466415	-55.150140	247.975956	57.255577	-97.294734	-90.315706	1479.336915	-6.392114	276.647776	1470.782049	-23.308971	-182.938488	1201.497045	-69.899056	343.945260	1190.498432	-89.568153	-171.206500	1228.958214	-323.058459	267.722599	1274.868949	-298.769516
141	1.40000	89.519276	952.155516	-17.183413	91.561354	1529.743518	-43.070292	79.616700	1665.613733	-160.564997	14.209131	951.762673	-12.158264	164.829606	952.548351	-22.208455	-43.533093	526.675846	17.831941	205.567069	524.759595	-14.323001	-80.395863	137.676792	126.583899	237.191855	133.043653	84.251463	-77.495449	93.260246	165.187291	237.763713	88.964599	124.446163	-107.816883	69.240658	-55.575734	248.391283	57.105697	-97.886443	-90.369554	1478.921672	-7.384168	277.408108	1470.292472	-24.513088	-180.819441	1200.668255	-71.389525	342.634462	1189.613076	-91.262703	-162.894869	1230.095477	-324.875795	260.319800	1272.319717	-300.001565
142	1.41000	89.891131	951.830165	-17.191614	91.911145	1529.371329	-43.477977	79.839357	1665.369211	-160.964585	14.532719	951.435722	-12.196080	165.249718	952.224600	-22.187033	-43.128518	526.439134	17.666698	206.010046	524.560154	-14.739029	-80.119748	137.455022	126.211988	237.702618	132.872652	83.689436	-77.281922	93.027837	164.830413	238.307429	88.782537	123.890556	-107.274690	69.014900	-56.001327	248.806609	56.955817	-98.478152	-90.423402	1478.506429	-8.376222	278.168439	1469.802894	-25.717206	-178.700394	1199.839464	-72.879994	341.323663	1188.727720	-92.957253	-154.583238	1231.232740	-326.693132	252.917002	1269.770486	-301.233614
